#N canvas 646 0 1265 953 10;
#X obj 215 616 osc~;
#X obj 60 777 *~;
#X obj 488 628 vsl 15 128 0 1 0 0 empty empty empty 0 -9 0 10 -262144
-1 -1 8200 1;
#X obj 60 690 vline~;
#X obj 60 728 *~;
#X obj 167 616 osc~;
#X obj 213 531 f;
#X obj 258 615 osc~;
#X obj 258 653 *~ 0.1;
#X obj 214 689 *~ 0.5;
#X obj 214 652 *~ 0.6;
#X obj 168 651 *~ 0.3;
#X obj 374 624 vline~;
#X obj 280 737 +~;
#X obj 240 830 *~;
#X obj 280 763 *~;
#X msg -13 574 1 50 \, 0.7 40 40 \, 0 120 120;
#X obj 167 573 * 1.25;
#X obj 216 576 * 2.5;
#X obj 258 576 * 0.75;
#X obj 219 428 mtof;
#X obj 226 344 hsl 128 15 20 100 0 0 empty empty empty -2 -8 0 10 -262144
-1 -1 4762 1;
#X floatatom 223 372 5 0 0 0 - - -, f 5;
#X msg 361 585 1 40 \, 0.8 20 20 \, 0 20 20;
#X obj 308 659 *~ 0.1;
#X obj 308 576 * 2;
#X obj 308 619 triangle;
#X obj 139 849 rev3~ 100 75;
#X obj 529 935 dac~;
#X obj 192 180 tgl 15 0 empty empty empty 17 7 0 10 -262144 -1 -1 1
1;
#X msg 193 221 \; pd dsp \$1;
#X obj 642 126 tgl 15 0 empty empty empty 17 7 0 10 -262144 -1 -1 1
1;
#X obj 784 305 hsl 128 15 20 100 0 0 empty empty empty -2 -8 0 10 -262144
-1 -1 7537 1;
#X floatatom 713 338 5 0 0 0 - - -, f 5;
#X obj 639 172 metro 500;
#X obj 430 492 * 1.25;
#X obj 431 528 square;
#N canvas 0 50 450 300 random 0;
#X obj 35 107 /;
#X floatatom 36 143 5 0 0 0 - - -, f 5;
#X obj 35 66 random 500;
#X obj 112 75 loadbang;
#X obj 46 35 inlet;
#X obj 35 175 outlet;
#X msg 113 107 400;
#X connect 0 0 1 0;
#X connect 1 0 5 0;
#X connect 2 0 0 0;
#X connect 3 0 6 0;
#X connect 4 0 2 0;
#X connect 6 0 0 1;
#X restore 645 288 pd random;
#X obj 981 274 +;
#N canvas 0 50 450 300 random 0;
#X obj 35 107 /;
#X floatatom 36 143 5 0 0 0 - - -, f 5;
#X obj 35 66 random 500;
#X obj 112 75 loadbang;
#X obj 46 35 inlet;
#X obj 35 175 outlet;
#X msg 113 107 400;
#X connect 0 0 1 0;
#X connect 1 0 5 0;
#X connect 2 0 0 0;
#X connect 3 0 6 0;
#X connect 4 0 2 0;
#X connect 6 0 0 1;
#X restore 920 220 pd random;
#X obj 261 410 +;
#N canvas 0 50 450 300 random 0;
#X obj 35 107 /;
#X floatatom 36 143 5 0 0 0 - - -, f 5;
#X obj 35 66 random 500;
#X obj 112 75 loadbang;
#X obj 46 35 inlet;
#X obj 35 175 outlet;
#X msg 113 107 400;
#X connect 0 0 1 0;
#X connect 1 0 5 0;
#X connect 2 0 0 0;
#X connect 3 0 6 0;
#X connect 4 0 2 0;
#X connect 6 0 0 1;
#X restore 396 371 pd random;
#X obj 180 731 pack 0 20;
#X obj 166 766 line~;
#X msg 220 298 50;
#X msg 774 261 70;
#X obj 663 378 +;
#X obj 988 447 hsl 180 15 1 40 0 0 empty \$0-width_ctrl width -2 -8
1 10 -262144 -1 -1 3413 1;
#X obj 987 478 hsl 180 15 0.9 0.999 0 0 empty \$0-decay_ctrl decay
-2 -8 1 10 -262144 -1 -1 17177 1;
#X obj 987 508 hsl 180 15 100 8000 0 0 empty \$0-cutoff_ctrl cutoff
-2 -8 1 10 -262144 -1 -1 11789 1;
#N canvas 286 373 847 508 plucked_instrument 0;
#X obj 22 63 inlet;
#X obj 92 60 inlet;
#X obj 175 60 inlet;
#X obj 241 59 inlet;
#X obj 311 60 inlet;
#X obj 374 63 inlet;
#X obj 473 65 inlet;
#X obj 515 65 inlet;
#X obj 557 65 inlet;
#X text 17 16 6 inlets representing the six strings of our instrument.
A midi note integer message to any inlet excites that particular string
at the specified pitch.;
#X text 469 46 Width \, decay \, and cutoff inlets;
#X obj 21 165 karpluck~;
#X obj 21 373 outlet~;
#X obj 21 349 *~ 0.25;
#X obj 473 128 s \$0-width;
#X obj 516 107 s \$0-decay;
#X obj 557 87 s \$0-cutoff;
#X obj 106 87 r \$0-width;
#X obj 188 89 r \$0-decay;
#X obj 264 90 r \$0-cutoff;
#X obj 92 181 karpluck~;
#X obj 175 203 karpluck~;
#X obj 241 224 karpluck~;
#X obj 309 233 karpluck~;
#X obj 374 264 karpluck~;
#X text 334 112 comment;
#X text 73 343 scale the output down by approx 12dB to avoid clipping
;
#X connect 0 0 11 0;
#X connect 1 0 20 0;
#X connect 2 0 21 0;
#X connect 3 0 22 0;
#X connect 4 0 23 0;
#X connect 5 0 24 0;
#X connect 6 0 14 0;
#X connect 7 0 15 0;
#X connect 8 0 16 0;
#X connect 11 0 13 0;
#X connect 13 0 12 0;
#X connect 17 0 11 1;
#X connect 17 0 20 1;
#X connect 17 0 21 1;
#X connect 17 0 22 1;
#X connect 17 0 23 1;
#X connect 17 0 24 1;
#X connect 18 0 11 2;
#X connect 18 0 20 2;
#X connect 18 0 21 2;
#X connect 18 0 22 2;
#X connect 18 0 23 2;
#X connect 18 0 24 2;
#X connect 19 0 11 3;
#X connect 19 0 20 3;
#X connect 19 0 22 3;
#X connect 19 0 21 3;
#X connect 19 0 23 3;
#X connect 19 0 24 3;
#X connect 20 0 13 0;
#X connect 21 0 13 0;
#X connect 22 0 13 0;
#X connect 23 0 13 0;
#X connect 24 0 13 0;
#X restore 821 541 pd plucked_instrument;
#X obj 822 581 dac~;
#X obj 602 486 loadbang;
#X msg 597 516 0.995;
#X msg 640 516 5700;
#X obj 567 610 s \$0-width_ctrl;
#X obj 597 586 s \$0-decay_ctrl;
#X obj 640 565 s \$0-cutoff_ctrl;
#X text 989 578 Colin Barry / colin@loomer.co.uk;
#X text 991 593 www.loomer.co.uk;
#X msg 567 516 8;
#X obj 673 542 s \$0-strum_speed_ctrl;
#X msg 680 517 8;
#X connect 0 0 10 0;
#X connect 1 0 27 0;
#X connect 2 0 42 0;
#X connect 3 0 4 0;
#X connect 4 0 1 0;
#X connect 5 0 11 0;
#X connect 6 0 17 0;
#X connect 6 0 18 0;
#X connect 6 0 19 0;
#X connect 6 0 25 0;
#X connect 7 0 8 0;
#X connect 8 0 9 0;
#X connect 9 0 4 1;
#X connect 9 0 13 0;
#X connect 10 0 9 0;
#X connect 11 0 9 0;
#X connect 12 0 15 1;
#X connect 13 0 15 0;
#X connect 14 0 28 0;
#X connect 14 0 28 1;
#X connect 15 0 14 0;
#X connect 16 0 3 0;
#X connect 17 0 5 0;
#X connect 18 0 0 0;
#X connect 19 0 7 0;
#X connect 20 0 6 0;
#X connect 21 0 22 0;
#X connect 22 0 16 0;
#X connect 22 0 23 0;
#X connect 22 0 40 1;
#X connect 23 0 12 0;
#X connect 24 0 13 1;
#X connect 25 0 26 0;
#X connect 26 0 24 0;
#X connect 27 0 28 0;
#X connect 27 0 28 1;
#X connect 29 0 30 0;
#X connect 31 0 34 0;
#X connect 32 0 33 0;
#X connect 33 0 46 0;
#X connect 34 0 37 0;
#X connect 34 0 32 0;
#X connect 35 0 36 0;
#X connect 37 0 46 1;
#X connect 39 0 38 0;
#X connect 40 0 20 0;
#X connect 41 0 40 0;
#X connect 42 0 43 0;
#X connect 43 0 1 1;
#X connect 43 0 14 1;
#X connect 44 0 21 0;
#X connect 45 0 32 0;
#X connect 46 0 50 0;
#X connect 47 0 50 6;
#X connect 48 0 50 7;
#X connect 49 0 50 8;
#X connect 50 0 51 0;
#X connect 50 0 51 1;
#X connect 52 0 60 0;
#X connect 52 0 53 0;
#X connect 52 0 54 0;
#X connect 52 0 62 0;
#X connect 53 0 56 0;
#X connect 54 0 57 0;
#X connect 60 0 55 0;
#X connect 62 0 61 0;
