#N canvas -8 -8 1920 997 10;
#X obj 215 616 osc~;
#X obj 158 812 *~;
#X obj 566 479 vsl 15 128 0 1 0 0 empty empty empty 0 -9 0 10 -262144
-1 -1 618 1;
#X obj 60 690 vline~;
#X obj 94 741 *~;
#X obj 167 616 osc~;
#X obj 215 513 f;
#X obj 258 615 osc~;
#X obj 258 653 *~ 0.1;
#X obj 214 689 *~ 0.5;
#X obj 214 652 *~ 0.6;
#X obj 168 651 *~ 0.3;
#X obj 395 645 vline~;
#X obj 280 737 +~;
#X obj 313 831 *~;
#X obj 280 763 *~;
#X msg 34 518 1 50 \, 0.7 40 40 \, 0 120 120;
#X obj 167 573 * 1.25;
#X obj 216 576 * 2.5;
#X obj 258 576 * 0.75;
#X obj 217 473 mtof;
#X obj 219 340 hsl 128 15 20 100 0 0 empty empty empty -2 -8 0 10 -262144
-1 -1 4398 1;
#X floatatom 219 398 5 0 0 0 - - -, f 5;
#X obj 308 659 *~ 0.1;
#X obj 162 919 dac~;
#X obj 192 180 tgl 15 0 empty empty empty 17 7 0 10 -262144 -1 -1 1
1;
#X msg 193 221 \; pd dsp \$1;
#X obj 752 299 hsl 128 15 20 80 0 0 empty empty empty -2 -8 0 10 -262144
-1 -1 7317 1;
#X floatatom 713 338 5 0 0 0 - - -, f 5;
#N canvas 0 50 450 300 random 0;
#X obj 35 107 /;
#X floatatom 36 143 5 0 0 0 - - -, f 5;
#X obj 35 66 random 500;
#X obj 112 75 loadbang;
#X obj 46 35 inlet;
#X obj 35 175 outlet;
#X msg 113 107 400;
#X connect 0 0 1 0;
#X connect 1 0 5 0;
#X connect 2 0 0 0;
#X connect 3 0 6 0;
#X connect 4 0 2 0;
#X connect 6 0 0 1;
#X restore 665 310 pd random;
#X obj 981 274 +;
#N canvas 0 50 450 300 random 0;
#X obj 35 107 /;
#X floatatom 36 143 5 0 0 0 - - -, f 5;
#X obj 35 66 random 500;
#X obj 112 75 loadbang;
#X obj 46 35 inlet;
#X obj 35 175 outlet;
#X msg 113 107 400;
#X connect 0 0 1 0;
#X connect 1 0 5 0;
#X connect 2 0 0 0;
#X connect 3 0 6 0;
#X connect 4 0 2 0;
#X connect 6 0 0 1;
#X restore 920 220 pd random;
#X obj 439 776 pack 0 20;
#X obj 441 802 line~;
#X obj 663 378 +;
#X obj 988 447 hsl 180 15 1 40 0 0 empty \$0-width_ctrl width -2 -8
1 10 -262144 -1 -1 6113 1;
#X obj 987 478 hsl 180 15 0.9 0.999 0 0 empty \$0-decay_ctrl decay
-2 -8 1 10 -262144 -1 -1 13900 1;
#X obj 987 508 hsl 180 15 100 8000 0 0 empty \$0-cutoff_ctrl cutoff
-2 -8 1 10 -262144 -1 -1 7789 1;
#N canvas 286 373 847 508 plucked_instrument 0;
#X obj 22 63 inlet;
#X obj 92 60 inlet;
#X obj 175 60 inlet;
#X obj 241 59 inlet;
#X obj 311 60 inlet;
#X obj 374 63 inlet;
#X obj 473 65 inlet;
#X obj 515 65 inlet;
#X obj 557 65 inlet;
#X text 17 16 6 inlets representing the six strings of our instrument.
A midi note integer message to any inlet excites that particular string
at the specified pitch.;
#X text 469 46 Width \, decay \, and cutoff inlets;
#X obj 21 165 karpluck~;
#X obj 21 373 outlet~;
#X obj 21 349 *~ 0.25;
#X obj 473 128 s \$0-width;
#X obj 516 107 s \$0-decay;
#X obj 557 87 s \$0-cutoff;
#X obj 106 87 r \$0-width;
#X obj 188 89 r \$0-decay;
#X obj 264 90 r \$0-cutoff;
#X obj 92 181 karpluck~;
#X obj 175 203 karpluck~;
#X obj 241 224 karpluck~;
#X obj 309 233 karpluck~;
#X obj 374 264 karpluck~;
#X text 334 112 comment;
#X text 73 343 scale the output down by approx 12dB to avoid clipping
;
#X connect 0 0 11 0;
#X connect 1 0 20 0;
#X connect 2 0 21 0;
#X connect 3 0 22 0;
#X connect 4 0 23 0;
#X connect 5 0 24 0;
#X connect 6 0 14 0;
#X connect 7 0 15 0;
#X connect 8 0 16 0;
#X connect 11 0 13 0;
#X connect 13 0 12 0;
#X connect 17 0 11 1;
#X connect 17 0 20 1;
#X connect 17 0 21 1;
#X connect 17 0 22 1;
#X connect 17 0 23 1;
#X connect 17 0 24 1;
#X connect 18 0 11 2;
#X connect 18 0 20 2;
#X connect 18 0 21 2;
#X connect 18 0 22 2;
#X connect 18 0 23 2;
#X connect 18 0 24 2;
#X connect 19 0 11 3;
#X connect 19 0 20 3;
#X connect 19 0 22 3;
#X connect 19 0 21 3;
#X connect 19 0 23 3;
#X connect 19 0 24 3;
#X connect 20 0 13 0;
#X connect 21 0 13 0;
#X connect 22 0 13 0;
#X connect 23 0 13 0;
#X connect 24 0 13 0;
#X restore 811 536 pd plucked_instrument;
#X obj 863 24 loadbang;
#X msg 858 54 0.995;
#X msg 901 54 5700;
#X obj 828 148 s \$0-width_ctrl;
#X obj 858 124 s \$0-decay_ctrl;
#X obj 901 103 s \$0-cutoff_ctrl;
#X msg 828 54 8;
#X obj 934 80 s \$0-strum_speed_ctrl;
#X msg 941 55 8;
#X obj 473 853 *~;
#X text 982 560 Strings use Karplus-Strong from;
#X text 807 575 http://blog.loomer.co.uk/2010/02/karplus-strong-guitar-string-synthesis.html
;
#X obj 642 225 bng 15 250 50 0 empty empty empty 17 7 0 10 -262144
-1 -1;
#X obj 140 844 rev3~ 100 60;
#X obj 284 886 rev3~ 120 30;
#N canvas 0 50 450 300 random 0;
#X obj 35 107 /;
#X floatatom 36 143 5 0 0 0 - - -, f 5;
#X obj 35 66 random 500;
#X obj 112 75 loadbang;
#X obj 46 35 inlet;
#X obj 35 175 outlet;
#X msg 113 107 400;
#X connect 0 0 1 0;
#X connect 1 0 5 0;
#X connect 2 0 0 0;
#X connect 3 0 6 0;
#X connect 4 0 2 0;
#X connect 6 0 0 1;
#X restore 665 310 pd random;
#N canvas 0 50 450 300 random 0;
#X obj 35 107 /;
#X floatatom 36 143 5 0 0 0 - - -, f 5;
#X obj 35 66 random 500;
#X obj 112 75 loadbang;
#X obj 46 35 inlet;
#X obj 35 175 outlet;
#X msg 113 107 400;
#X connect 0 0 1 0;
#X connect 1 0 5 0;
#X connect 2 0 0 0;
#X connect 3 0 6 0;
#X connect 4 0 2 0;
#X connect 6 0 0 1;
#X restore 98 348 pd random;
#X obj 210 446 +;
#X obj 206 303 bng 15 250 50 0 empty empty empty 17 7 0 10 -262144
-1 -1;
#X obj 439 776 pack 0 20;
#X obj 441 802 line~;
#N canvas 1251 286 494 445 oscReceive 1;
#X obj 55 184 netreceive -u -b;
#X msg 78 143 listen 0;
#X text 152 143 stop listening;
#X text 64 85 packets from network;
#X text 173 177 UDP packets \, binary output, f 13;
#X obj 47 332 print;
#X obj 45 272 oscparse;
#X text 150 114 listen on port 8000;
#X obj 177 269 oscparse;
#X obj 177 293 list trim;
#X text 241 267 Parse the OSC message;
#X msg 66 115 listen 8000;
#X obj 177 319 route unity;
#X obj 179 375 unpack f f f;
#X obj 173 403 s angle;
#X obj 225 405 s frequency;
#X obj 300 405 s volume;
#X obj 177 348 route AngleContactPointVelocity;
#X connect 0 0 6 0;
#X connect 0 0 8 0;
#X connect 1 0 0 0;
#X connect 6 0 5 0;
#X connect 8 0 9 0;
#X connect 9 0 12 0;
#X connect 11 0 0 0;
#X connect 12 0 17 0;
#X connect 13 0 14 0;
#X connect 13 1 15 0;
#X connect 13 2 16 0;
#X connect 17 0 13 0;
#X restore 47 142 pd oscReceive;
#N canvas 366 258 450 378 oscSend 1;
#X msg 158 207 disconnect;
#X obj 61 253 netsend -u -b;
#X obj 59 55 list prepend send;
#X obj 59 80 list trim;
#X msg 150 175 connect 127.0.0.1 8001;
#X obj 59 29 r oscOut;
#X text 301 163 send to port 8001;
#X msg 147 148 connect localhost 8001;
#X connect 0 0 1 0;
#X connect 2 0 3 0;
#X connect 3 0 1 0;
#X connect 4 0 1 0;
#X connect 5 0 2 0;
#X connect 7 0 1 0;
#X restore 47 118 pd oscSend;
#X obj 306 166 r frequency;
#X obj 494 386 r volume;
#X floatatom 494 433 5 0 0 0 - - -, f 5;
#X obj 432 162 metro 750;
#X floatatom 308 211 5 0 0 0 - - -, f 5;
#X obj 355 201 print frequency;
#X obj 310 261 * -1;
#X obj 308 576 * 2.5;
#X msg 373 556 1 40 \, 0 20 20;
#X obj 308 619 triangle;
#X obj 494 462 / 15;
#X obj 298 295 + 60;
#X connect 0 0 10 0;
#X connect 1 0 52 0;
#X connect 2 0 32 0;
#X connect 3 0 4 0;
#X connect 4 0 1 0;
#X connect 5 0 11 0;
#X connect 6 0 17 0;
#X connect 6 0 18 0;
#X connect 6 0 19 0;
#X connect 6 0 69 0;
#X connect 7 0 8 0;
#X connect 8 0 9 0;
#X connect 9 0 13 0;
#X connect 9 0 4 1;
#X connect 10 0 9 0;
#X connect 11 0 9 0;
#X connect 12 0 15 1;
#X connect 13 0 15 0;
#X connect 14 0 24 0;
#X connect 14 0 24 1;
#X connect 15 0 14 0;
#X connect 16 0 3 0;
#X connect 17 0 5 0;
#X connect 18 0 0 0;
#X connect 19 0 7 0;
#X connect 20 0 6 0;
#X connect 21 0 22 0;
#X connect 22 0 16 0;
#X connect 22 0 56 0;
#X connect 22 0 70 0;
#X connect 23 0 13 1;
#X connect 25 0 26 0;
#X connect 27 0 28 0;
#X connect 28 0 34 0;
#X connect 29 0 34 1;
#X connect 31 0 30 0;
#X connect 32 0 33 0;
#X connect 33 0 1 1;
#X connect 33 0 14 1;
#X connect 33 0 48 1;
#X connect 34 0 38 0;
#X connect 35 0 38 6;
#X connect 36 0 38 7;
#X connect 37 0 38 8;
#X connect 38 0 48 0;
#X connect 39 0 45 0;
#X connect 39 0 40 0;
#X connect 39 0 41 0;
#X connect 39 0 47 0;
#X connect 40 0 43 0;
#X connect 41 0 44 0;
#X connect 45 0 42 0;
#X connect 47 0 46 0;
#X connect 48 0 53 0;
#X connect 51 0 29 0;
#X connect 51 0 27 0;
#X connect 52 0 24 0;
#X connect 52 0 24 1;
#X connect 53 0 24 0;
#X connect 53 0 24 1;
#X connect 55 0 56 1;
#X connect 56 0 20 0;
#X connect 57 0 21 0;
#X connect 57 0 55 0;
#X connect 58 0 59 0;
#X connect 62 0 66 0;
#X connect 62 0 67 0;
#X connect 63 0 64 0;
#X connect 64 0 72 0;
#X connect 66 0 68 0;
#X connect 68 0 73 0;
#X connect 69 0 71 0;
#X connect 70 0 12 0;
#X connect 71 0 23 0;
#X connect 72 0 2 0;
#X connect 73 0 27 0;
