#N canvas 741 118 918 749 10;
#X obj 12 183 vsl 15 128 0 1 0 0 empty empty empty 0 -9 0 10 -262144
-1 -1 0 1;
#X obj 407 687 dac~;
#X obj 79 105 tgl 15 0 empty empty empty 17 7 0 10 -262144 -1 -1 0
1;
#X msg 79 140 \; pd dsp \$1;
#X obj 12 346 line~;
#X obj 450 452 bng 15 250 50 0 empty empty empty 17 7 0 10 -262144
-1 -1;
#X obj 268 441 bng 15 250 50 0 empty empty empty 17 7 0 10 -262144
-1 -1;
#N canvas 994 335 494 445 oscReceive 0;
#X obj 55 184 netreceive -u -b;
#X msg 78 143 listen 0;
#X text 152 143 stop listening;
#X text 64 85 packets from network;
#X text 173 177 UDP packets \, binary output, f 13;
#X obj 47 332 print;
#X obj 45 272 oscparse;
#X text 150 114 listen on port 8000;
#X obj 177 269 oscparse;
#X obj 177 293 list trim;
#X text 241 267 Parse the OSC message;
#X msg 66 115 listen 8000;
#X obj 177 319 route unity;
#X obj 173 403 s angle;
#X obj 225 405 s frequency;
#X obj 300 405 s volume;
#X obj 21 66 loadbang;
#X obj 116 406 s tempo;
#X floatatom 74 408 5 0 0 0 - - -, f 5;
#X obj 177 348 route AngleContactPointVelocity;
#X obj 101 342 route Tempo;
#X obj 100 373 unpack f;
#X obj 194 378 unpack f f f f;
#X obj 362 398 s type;
#X connect 0 0 6 0;
#X connect 0 0 8 0;
#X connect 1 0 0 0;
#X connect 6 0 5 0;
#X connect 8 0 9 0;
#X connect 9 0 12 0;
#X connect 11 0 0 0;
#X connect 12 0 19 0;
#X connect 12 0 20 0;
#X connect 16 0 11 0;
#X connect 19 0 22 0;
#X connect 20 0 21 0;
#X connect 21 0 18 0;
#X connect 21 0 17 0;
#X connect 22 0 13 0;
#X connect 22 1 14 0;
#X connect 22 2 15 0;
#X connect 22 3 23 0;
#X restore 10 54 pd oscReceive;
#N canvas 366 258 450 378 oscSend 0;
#X msg 158 207 disconnect;
#X obj 61 253 netsend -u -b;
#X obj 59 55 list prepend send;
#X obj 59 80 list trim;
#X msg 150 175 connect 127.0.0.1 8001;
#X obj 59 29 r oscOut;
#X text 301 163 send to port 8001;
#X msg 147 148 connect localhost 8001;
#X connect 0 0 1 0;
#X connect 2 0 3 0;
#X connect 3 0 1 0;
#X connect 4 0 1 0;
#X connect 5 0 2 0;
#X connect 7 0 1 0;
#X restore 10 30 pd oscSend;
#X obj 77 186 r frequency;
#X floatatom 77 215 5 0 0 0 - - -, f 5;
#X obj 117 215 print frequency;
#N canvas 825 359 526 544 beat 0;
#X obj 46 116 metro 750;
#X obj 114 26 r tempo;
#X obj 118 61 * 1000;
#X floatatom 147 113 5 0 0 0 - - -, f 5;
#X obj 143 140 noise~;
#X obj 188 187 *~;
#X obj 218 108 vline~;
#X obj 210 147 *~;
#X obj 42 147 bng 15 250 50 0 empty empty empty 17 7 0 10 -262144 -1
-1;
#X obj 180 243 *~;
#X obj 206 222 *~;
#X obj 140 216 *~ 0.5;
#X obj 249 226 inlet~;
#X obj 187 293 outlet~;
#X msg 214 67 1 10 \, 0 30 20;
#X obj 60 86 bng 15 250 50 0 empty empty empty 17 7 0 10 -262144 -1
-1;
#X obj 119 83 / 2;
#X obj 145 164 lop~ 2000;
#X connect 0 0 14 0;
#X connect 0 0 8 0;
#X connect 1 0 2 0;
#X connect 2 0 16 0;
#X connect 4 0 17 0;
#X connect 5 0 10 0;
#X connect 5 0 10 1;
#X connect 6 0 7 0;
#X connect 6 0 7 1;
#X connect 7 0 5 1;
#X connect 9 0 13 0;
#X connect 10 0 11 0;
#X connect 11 0 9 0;
#X connect 12 0 9 1;
#X connect 14 0 6 0;
#X connect 15 0 0 0;
#X connect 16 0 0 1;
#X connect 16 0 3 0;
#X connect 16 0 15 0;
#X connect 17 0 5 0;
#X restore 95 499 pd beat;
#X obj 263 184 r type;
#X obj 255 324 spigot;
#X msg 261 287 1;
#X msg 292 287 0;
#X obj 436 349 spigot;
#X msg 435 292 1;
#X msg 467 291 0;
#N canvas -102 90 1920 997 bell 0;
#X obj 226 16 inlet;
#X obj 376 339 osc~;
#X obj 291 496 *~;
#X obj 221 413 vline~;
#X obj 255 464 *~;
#X obj 328 339 osc~;
#X obj 376 236 f;
#X obj 419 338 osc~;
#X obj 419 376 *~ 0.1;
#X obj 375 412 *~ 0.5;
#X obj 375 375 *~ 0.6;
#X obj 329 374 *~ 0.3;
#X obj 556 368 vline~;
#X obj 441 460 +~;
#X obj 420 514 *~;
#X obj 441 486 *~;
#X obj 328 296 * 1.25;
#X obj 377 299 * 2.5;
#X obj 419 299 * 0.75;
#X obj 378 196 mtof;
#X obj 387 78 hsl 128 15 20 100 0 0 empty empty empty -2 -8 0 10 -262144
-1 -1 0 1;
#X floatatom 353 116 5 0 0 0 - - -, f 5;
#X obj 469 382 *~ 0.1;
#X obj 284 515 rev3~ 100 60;
#N canvas 379 76 450 300 random 0;
#X obj 35 107 /;
#X floatatom 36 143 5 0 0 0 - - -, f 5;
#X obj 35 66 random 500;
#X obj 112 75 loadbang;
#X obj 46 35 inlet;
#X obj 35 175 outlet;
#X msg 113 107 400;
#X connect 0 0 1 0;
#X connect 1 0 5 0;
#X connect 2 0 0 0;
#X connect 3 0 6 0;
#X connect 4 0 2 0;
#X connect 6 0 0 1;
#X restore 228 89 pd random;
#X obj 263 156 +;
#X obj 469 299 * 2.5;
#X obj 469 342 triangle;
#X obj 505 503 inlet~;
#X obj 362 552 outlet~;
#X obj 228 59 bng 15 250 50 0 empty empty empty 17 7 0 10 -262144 -1
-1;
#X obj 278 131 *;
#X floatatom 291 173 5 0 0 0 - - -, f 5;
#X obj 101 115 tgl 15 0 empty empty random 17 7 0 10 -262144 -1 -1
0 1;
#X msg 534 279 1 40 \, 0 10 5;
#X msg 195 241 1 45 \, 0.7 40 40 \, 0 120 120;
#X connect 0 0 20 0;
#X connect 0 0 30 0;
#X connect 1 0 10 0;
#X connect 2 0 23 0;
#X connect 3 0 4 0;
#X connect 4 0 2 0;
#X connect 5 0 11 0;
#X connect 6 0 16 0;
#X connect 6 0 17 0;
#X connect 6 0 18 0;
#X connect 6 0 26 0;
#X connect 7 0 8 0;
#X connect 8 0 9 0;
#X connect 9 0 13 0;
#X connect 9 0 4 1;
#X connect 10 0 9 0;
#X connect 11 0 9 0;
#X connect 12 0 15 1;
#X connect 13 0 15 0;
#X connect 14 0 29 0;
#X connect 15 0 14 0;
#X connect 16 0 5 0;
#X connect 17 0 1 0;
#X connect 18 0 7 0;
#X connect 19 0 6 0;
#X connect 20 0 21 0;
#X connect 21 0 35 0;
#X connect 21 0 25 0;
#X connect 21 0 34 0;
#X connect 22 0 13 1;
#X connect 23 0 29 0;
#X connect 24 0 31 0;
#X connect 25 0 32 0;
#X connect 26 0 27 0;
#X connect 27 0 22 0;
#X connect 28 0 2 1;
#X connect 28 0 14 1;
#X connect 30 0 24 0;
#X connect 31 0 25 1;
#X connect 32 0 19 0;
#X connect 33 0 31 1;
#X connect 34 0 12 0;
#X connect 35 0 3 0;
#X coords 0 -1 1 1 60 30 1 100 100;
#X restore 257 462 pd bell;
#N canvas 22 89 758 300 string 1;
#X obj 174 67 hsl 128 15 20 80 0 0 empty empty empty -2 -8 0 10 -262144
-1 -1 0 1;
#X floatatom 137 78 5 0 0 0 - - -, f 5;
#N canvas 0 50 450 300 random 0;
#X obj 35 107 /;
#X floatatom 36 143 5 0 0 0 - - -, f 5;
#X obj 35 66 random 500;
#X obj 112 75 loadbang;
#X obj 46 35 inlet;
#X obj 35 175 outlet;
#X msg 113 107 400;
#X connect 0 0 1 0;
#X connect 1 0 5 0;
#X connect 2 0 0 0;
#X connect 3 0 6 0;
#X connect 4 0 2 0;
#X connect 6 0 0 1;
#X restore 57 79 pd random;
#X obj 89 165 +;
#X obj 247 109 hsl 180 15 1 40 0 0 empty \$0-width_ctrl width -2 -8
1 10 -262144 -1 -1 3213 1;
#X obj 245 143 hsl 180 15 0.9 0.999 0 0 empty \$0-decay_ctrl decay
-2 -8 1 10 -262144 -1 -1 17177 1;
#X obj 245 173 hsl 180 15 100 8000 0 0 empty \$0-cutoff_ctrl cutoff
-2 -8 1 10 -262144 -1 -1 12689 1;
#N canvas 286 290 847 508 plucked_instrument 0;
#X obj 22 63 inlet;
#X obj 92 60 inlet;
#X obj 175 60 inlet;
#X obj 241 59 inlet;
#X obj 311 60 inlet;
#X obj 374 63 inlet;
#X obj 473 65 inlet;
#X obj 515 65 inlet;
#X obj 557 65 inlet;
#X text 17 16 6 inlets representing the six strings of our instrument.
A midi note integer message to any inlet excites that particular string
at the specified pitch.;
#X text 469 46 Width \, decay \, and cutoff inlets;
#X obj 21 165 karpluck~;
#X obj 21 373 outlet~;
#X obj 21 349 *~ 0.25;
#X obj 473 128 s \$0-width;
#X obj 516 107 s \$0-decay;
#X obj 557 87 s \$0-cutoff;
#X obj 106 87 r \$0-width;
#X obj 188 89 r \$0-decay;
#X obj 264 90 r \$0-cutoff;
#X obj 92 181 karpluck~;
#X obj 175 203 karpluck~;
#X obj 241 224 karpluck~;
#X obj 309 233 karpluck~;
#X obj 374 264 karpluck~;
#X text 334 112 comment;
#X text 73 343 scale the output down by approx 12dB to avoid clipping
;
#X connect 0 0 11 0;
#X connect 1 0 20 0;
#X connect 2 0 21 0;
#X connect 3 0 22 0;
#X connect 4 0 23 0;
#X connect 5 0 24 0;
#X connect 6 0 14 0;
#X connect 7 0 15 0;
#X connect 8 0 16 0;
#X connect 11 0 13 0;
#X connect 13 0 12 0;
#X connect 17 0 11 1;
#X connect 17 0 20 1;
#X connect 17 0 21 1;
#X connect 17 0 22 1;
#X connect 17 0 23 1;
#X connect 17 0 24 1;
#X connect 18 0 11 2;
#X connect 18 0 20 2;
#X connect 18 0 21 2;
#X connect 18 0 22 2;
#X connect 18 0 23 2;
#X connect 18 0 24 2;
#X connect 19 0 11 3;
#X connect 19 0 20 3;
#X connect 19 0 22 3;
#X connect 19 0 21 3;
#X connect 19 0 23 3;
#X connect 19 0 24 3;
#X connect 20 0 13 0;
#X connect 21 0 13 0;
#X connect 22 0 13 0;
#X connect 23 0 13 0;
#X connect 24 0 13 0;
#X restore 93 181 pd plucked_instrument;
#X obj 93 213 *~;
#X text 506 228 Strings use Karplus-Strong from;
#X text 331 243 http://blog.loomer.co.uk/2010/02/karplus-strong-guitar-string-synthesis.html
;
#X obj 88 28 inlet;
#X obj 245 198 inlet~;
#X obj 117 270 outlet~;
#X obj 503 43 loadbang;
#X msg 498 73 0.995;
#X msg 541 73 5700;
#X obj 468 167 s \$0-width_ctrl;
#X obj 498 143 s \$0-decay_ctrl;
#X obj 541 122 s \$0-cutoff_ctrl;
#X msg 468 73 8;
#X obj 36 54 bng 15 250 50 0 empty empty empty 17 7 0 10 -262144 -1
-1;
#X obj 100 114 tgl 15 0 empty empty random 17 7 0 10 -262144 -1 -1
0 1;
#X obj 51 118 *;
#X floatatom 51 143 5 0 0 0 - - -, f 5;
#X obj 115 234 rev3~ 110 25, f 13;
#X obj 177 207 *~ 0.9;
#X connect 0 0 1 0;
#X connect 1 0 3 0;
#X connect 2 0 23 0;
#X connect 3 0 7 0;
#X connect 4 0 7 6;
#X connect 5 0 7 7;
#X connect 6 0 7 8;
#X connect 7 0 8 0;
#X connect 8 0 25 0;
#X connect 11 0 0 0;
#X connect 11 0 21 0;
#X connect 12 0 26 0;
#X connect 14 0 20 0;
#X connect 14 0 15 0;
#X connect 14 0 16 0;
#X connect 15 0 18 0;
#X connect 16 0 19 0;
#X connect 20 0 17 0;
#X connect 21 0 2 0;
#X connect 22 0 23 1;
#X connect 23 0 3 1;
#X connect 23 0 24 0;
#X connect 25 0 13 0;
#X connect 26 0 8 1;
#X coords 0 -1 1 1 60 30 1 100 100;
#X restore 442 473 pd string;
#X obj 263 214 select 1 2 3, f 51;
#X obj 91 353 *~;
#X obj 104 318 tgl 25 0 empty empty Mute 30 7 0 15 -262144 -1 -1 0
1;
#X obj 93 469 *~;
#X obj 149 497 tgl 15 0 empty empty Background_Toggle 17 7 0 10 -262144
-1 -1 0 1;
#X obj 337 507 tgl 15 0 empty empty Bell_Toggle 17 7 0 10 -262144 -1
-1 0 1;
#X obj 537 504 tgl 15 0 empty empty String_Toggle 17 7 0 10 -257985
-1 -1 0 1;
#X obj 295 435 *~;
#X obj 495 430 *~;
#X floatatom 227 202 5 0 0 0 - - -, f 5;
#X obj 149 358 vsl 15 128 0 1 0 0 empty empty Background_Volume 0 -9
0 10 -262144 -1 -1 0 1;
#X obj 92 384 *~;
#X obj 337 363 vsl 15 128 0 1 0 0 empty empty Bell_Volume 0 -9 0 10
-228856 -1 -1 0 1;
#X obj 295 406 *~;
#X obj 535 365 vsl 15 128 0 1 0 0 empty empty String_Volume 0 -9 0
10 -257985 -1 -1 0 1;
#X obj 494 405 *~;
#X msg 668 294 1;
#X msg 700 293 0;
#X obj 718 508 tgl 15 0 empty empty "Brass"_Volume 17 7 0 10 -4032
-1 -1 0 1;
#X obj 672 438 *~;
#X obj 718 372 vsl 15 128 0 1 0 0 empty empty "Brass"_Volume 0 -9 0
10 -4032 -1 -1 0 1;
#X obj 672 412 *~;
#X obj 620 327 spigot;
#X obj 316 324 spigot;
#X obj 425 45 r volume;
#X floatatom 425 71 5 0 0 0 - - -, f 5;
#X obj 500 340 spigot;
#X obj 702 332 spigot;
#N canvas -8 -8 1920 997 "brass" 0;
#X obj 156 17 inlet;
#X obj 221 497 *~;
#X obj 151 414 vline~;
#X obj 185 465 *~;
#X obj 306 237 f;
#X obj 372 458 +~;
#X obj 368 520 *~;
#X obj 373 486 *~;
#X obj 308 197 mtof;
#X obj 317 79 hsl 128 15 20 100 0 0 empty empty empty -2 -8 0 10 -262144
-1 -1 0 1;
#X floatatom 309 142 5 0 0 0 - - -, f 5;
#N canvas 379 76 450 300 random 0;
#X obj 35 107 /;
#X floatatom 36 143 5 0 0 0 - - -, f 5;
#X obj 35 66 random 500;
#X obj 112 75 loadbang;
#X obj 46 35 inlet;
#X obj 35 175 outlet;
#X msg 113 107 400;
#X connect 0 0 1 0;
#X connect 1 0 5 0;
#X connect 2 0 0 0;
#X connect 3 0 6 0;
#X connect 4 0 2 0;
#X connect 6 0 0 1;
#X restore 172 89 pd random;
#X obj 193 157 +;
#X obj 291 475 inlet~;
#X obj 292 595 outlet~;
#X obj 158 60 bng 15 250 50 0 empty empty empty 17 7 0 10 -262144 -1
-1;
#X obj 208 132 *;
#X floatatom 192 182 5 0 0 0 - - -, f 5;
#X obj 100 115 tgl 15 0 empty empty random 17 7 0 10 -262144 -1 -1
0 1;
#X obj 311 406 *~ 0.5;
#X obj 267 359 *~ 0.8;
#X obj 496 375 vline~;
#X obj 263 327 square;
#X msg 499 295 1 29 \, 0 30 10;
#X obj 325 331 square;
#X obj 247 534 rev3~ 100 70;
#X obj 324 431 *~ 0.2;
#X obj 261 298 * 2.399;
#X obj 323 300 * 1.2001;
#X obj 321 359 *~ 0.03;
#X msg 125 235 0.4 30 \, 0.4 60 60 \, 0 120 200;
#X connect 0 0 9 0;
#X connect 0 0 15 0;
#X connect 1 0 25 0;
#X connect 2 0 3 0;
#X connect 3 0 1 0;
#X connect 4 0 27 0;
#X connect 4 0 28 0;
#X connect 5 0 7 0;
#X connect 6 0 14 0;
#X connect 7 0 6 0;
#X connect 8 0 4 0;
#X connect 9 0 10 0;
#X connect 10 0 12 0;
#X connect 10 0 30 0;
#X connect 10 0 23 0;
#X connect 11 0 16 0;
#X connect 12 0 17 0;
#X connect 13 0 1 1;
#X connect 13 0 6 1;
#X connect 15 0 11 0;
#X connect 16 0 12 1;
#X connect 17 0 8 0;
#X connect 18 0 16 1;
#X connect 19 0 3 1;
#X connect 19 0 26 0;
#X connect 20 0 19 0;
#X connect 21 0 7 1;
#X connect 22 0 20 0;
#X connect 23 0 21 0;
#X connect 24 0 29 0;
#X connect 25 0 14 0;
#X connect 26 0 5 0;
#X connect 27 0 22 0;
#X connect 28 0 24 0;
#X connect 29 0 19 0;
#X connect 30 0 2 0;
#X coords 0 -1 1 1 60 30 1 100 100;
#X restore 629 477 pd "brass";
#X obj 433 178 +;
#X obj 424 99 / 30;
#X floatatom 447 145 5 0 0 0 - - -, f 5;
#X obj 78 240 * -3;
#X obj 401 331 * 0.95;
#X obj 78 267 + 80;
#X obj 391 310 + 10;
#X obj 597 303 * 1;
#X connect 0 0 4 0;
#X connect 2 0 3 0;
#X connect 4 0 23 0;
#X connect 5 0 21 0;
#X connect 6 0 20 0;
#X connect 9 0 10 0;
#X connect 9 0 11 0;
#X connect 10 0 54 0;
#X connect 12 0 1 0;
#X connect 12 0 1 1;
#X connect 13 0 22 0;
#X connect 13 0 31 0;
#X connect 14 0 20 0;
#X connect 15 0 14 1;
#X connect 15 0 45 1;
#X connect 16 0 14 1;
#X connect 16 0 45 1;
#X connect 17 0 21 0;
#X connect 18 0 17 1;
#X connect 18 0 48 1;
#X connect 19 0 17 1;
#X connect 19 0 48 1;
#X connect 20 0 1 0;
#X connect 20 0 1 1;
#X connect 21 0 1 0;
#X connect 21 0 1 1;
#X connect 22 0 15 0;
#X connect 22 0 19 0;
#X connect 22 0 39 0;
#X connect 22 1 16 0;
#X connect 22 1 18 0;
#X connect 22 1 39 0;
#X connect 22 2 16 0;
#X connect 22 2 19 0;
#X connect 22 2 38 0;
#X connect 22 3 16 0;
#X connect 22 3 19 0;
#X connect 22 3 39 0;
#X connect 23 0 33 0;
#X connect 23 0 35 0;
#X connect 23 0 37 0;
#X connect 23 0 43 0;
#X connect 24 0 23 1;
#X connect 25 0 12 0;
#X connect 26 0 25 1;
#X connect 27 0 29 1;
#X connect 28 0 30 1;
#X connect 29 0 20 1;
#X connect 30 0 21 1;
#X connect 32 0 33 1;
#X connect 33 0 25 0;
#X connect 34 0 35 1;
#X connect 35 0 29 0;
#X connect 36 0 37 1;
#X connect 37 0 30 0;
#X connect 38 0 44 1;
#X connect 38 0 49 1;
#X connect 39 0 44 1;
#X connect 39 0 49 1;
#X connect 40 0 41 1;
#X connect 41 0 50 1;
#X connect 42 0 43 1;
#X connect 43 0 41 0;
#X connect 44 0 50 0;
#X connect 45 0 34 0;
#X connect 46 0 47 0;
#X connect 47 0 52 0;
#X connect 48 0 36 0;
#X connect 49 0 42 0;
#X connect 50 0 1 0;
#X connect 50 0 1 1;
#X connect 51 0 49 0;
#X connect 51 0 48 0;
#X connect 51 0 45 0;
#X connect 52 0 51 0;
#X connect 52 0 53 0;
#X connect 54 0 56 0;
#X connect 55 0 17 0;
#X connect 56 0 14 0;
#X connect 56 0 57 0;
#X connect 56 0 58 0;
#X connect 57 0 55 0;
#X connect 58 0 44 0;
