#N canvas 1 83 735 415 10;
#X msg 71 101 \; pd dsp 1;
#X obj 343 91 osc~;
#X obj 218 327 dac~;
#X obj 217 252 *~;
#X obj 156 95 vsl 15 128 0 1 0 0 empty empty empty 0 -9 0 10 -262144
-1 -1 8600 1;
#X obj 222 84 vline~;
#X obj 232 150 *~;
#X obj 310 89 osc~;
#X obj 348 41 f;
#X obj 61 -10 tgl 15 0 empty empty empty 17 7 0 10 -262144 -1 -1 1
1;
#X obj 105 2 metro 800;
#X obj 387 100 osc~;
#X obj 417 137 *~ 0.1;
#X obj 325 159 *~ 0.5;
#X obj 363 129 *~ 0.6;
#X obj 303 127 *~ 0.3;
#X obj 586 94 vline~;
#X obj 432 197 +~;
#X obj 426 242 *~;
#X obj 536 202 *~;
#X msg 158 45 1 50 \, 0.7 40 40 \, 0 120 120;
#X msg 564 41 1 40 \, 0.8 20 20 \, 0 20 20;
#X obj 309 59 * 1.25;
#X obj 351 69 * 2.5;
#X obj 389 61 * 0.75;
#X obj 386 11 mtof;
#X obj 284 -44 hsl 128 15 20 100 0 0 empty empty empty -2 -8 0 10 -262144
-1 -1 4900 1;
#X obj 100 285 rev3~ 95 80 0 0;
#X obj 479 53 * 3;
#X obj 478 147 *~ 0.09;
#X obj 479 93 phasor~;
#X connect 1 0 14 0;
#X connect 3 0 27 0;
#X connect 4 0 3 1;
#X connect 4 0 18 1;
#X connect 5 0 6 0;
#X connect 6 0 3 0;
#X connect 7 0 15 0;
#X connect 8 0 22 0;
#X connect 8 0 23 0;
#X connect 8 0 24 0;
#X connect 8 0 28 0;
#X connect 9 0 10 0;
#X connect 10 0 21 0;
#X connect 10 0 20 0;
#X connect 11 0 12 0;
#X connect 12 0 13 0;
#X connect 13 0 6 1;
#X connect 13 0 17 0;
#X connect 14 0 13 0;
#X connect 15 0 13 0;
#X connect 16 0 19 1;
#X connect 17 0 19 0;
#X connect 18 0 2 0;
#X connect 18 0 2 1;
#X connect 19 0 18 0;
#X connect 20 0 5 0;
#X connect 21 0 16 0;
#X connect 22 0 7 0;
#X connect 23 0 1 0;
#X connect 24 0 11 0;
#X connect 25 0 8 0;
#X connect 26 0 25 0;
#X connect 27 0 2 0;
#X connect 27 0 2 1;
#X connect 28 0 30 0;
#X connect 29 0 17 1;
#X connect 30 0 29 0;
