#N canvas 0 50 450 300 10;
#X obj 116 116 * -1;
#X msg 163 123 0;
#X obj 58 159 phasor~;
#X obj 109 159 phasor~;
#X msg 212 123 0.5;
#X obj 197 99 bng 15 250 50 0 empty empty empty 0 -6 0 8 -262144 -1
-1;
#X obj 87 228 -~ 1;
#X obj 86 192 +~;
#X obj 88 266 outlet~;
#X obj 106 26 inlet;
#X floatatom 147 64 5 0 0 0 - - -, f 5;
#X connect 0 0 3 0;
#X connect 1 0 2 1;
#X connect 2 0 7 0;
#X connect 3 0 7 1;
#X connect 4 0 3 1;
#X connect 5 0 1 0;
#X connect 5 0 4 0;
#X connect 6 0 8 0;
#X connect 7 0 6 0;
#X connect 9 0 0 0;
#X connect 9 0 2 0;
#X connect 9 0 10 0;
#X connect 10 0 5 0;
